<svg viewBox="0 0 64 64" xml:space="preserve" xmlns="http://www.w3.org/2000/svg"><path d="M58 52 44 38c-.583-.583-1.292-.875-2-.875-.253 0-.503.051-.75.125l-1.979-1.979A18.885 18.885 0 0 0 43 24c0-10.495-8.505-19-19-19S5 13.505 5 24s8.505 19 19 19c4.226 0 8.116-1.396 11.271-3.729l1.979 1.979c-.282.939-.041 1.959.75 2.75l14 14c.583.583 1.292.875 2 .875s1.417-.292 2-.875l2-2c1.166-1.166 1.166-2.834 0-4zM24 42c-9.925 0-18-8.075-18-18S14.075 6 24 6s18 8.075 18 18-8.075 18-18 18zm13.733-1.681-1.653-1.653a19.15 19.15 0 0 0 2.586-2.586l1.653 1.653c-.108.084-.217.165-.319.267l-2 2c-.102.102-.183.211-.267.319zm19.56 14.974-2 2c-.38.381-.828.582-1.293.582s-.913-.201-1.293-.582l-14-14c-.773-.773-.773-1.813 0-2.586l2-2c.38-.381.828-.582 1.293-.582s.913.201 1.293.582l14 14c.773.773.773 1.813 0 2.586z" fill="#ffffff" class="fill-37474f"></path><path d="M33.546 14.454a.5.5 0 0 0-.707.707 12.417 12.417 0 0 1 3.661 8.841 12.42 12.42 0 0 1-3.661 8.837c-4.874 4.873-12.803 4.873-17.678 0a.5.5 0 0 0-.707.707c2.632 2.632 6.089 3.947 9.546 3.947s6.914-1.315 9.546-3.947a13.413 13.413 0 0 0 3.954-9.544c0-3.606-1.403-6.998-3.954-9.548z" fill="#ffffff" class="fill-37474f"></path><path d="M24 8C15.178 8 8 15.178 8 24s7.178 16 16 16 16-7.178 16-16S32.822 8 24 8zm0 31c-8.284 0-15-6.716-15-15S15.716 9 24 9s15 6.716 15 15-6.716 15-15 15z" fill="#ffffff" class="fill-37474f"></path></svg>