<svg viewBox="0 0 24 24" xml:space="preserve" xmlns="http://www.w3.org/2000/svg"><path d="M2 16.5c-1.5 1.5-.7 2-2 7.5 5.4-1.4 6-.5 7.5-2s1.5-4 0-5.5-4-1.5-5.5 0zm4.8 4.8c-1.1 1.1-2 .7-5.4 1.4.7-3.4.2-4.3 1.4-5.4s3-1.1 4.1 0c1 1 1 2.8-.1 4zM23.7 3.1 20.9.3c-.4-.4-1-.4-1.4 0L6 13.7c-.2.2-.3.5-.3.8.9.2 1.7.6 2.4 1.3s1.1 1.5 1.3 2.4c.3 0 .6-.1.8-.3L23.7 4.5c.4-.4.4-1 0-1.4zM9.5 15.8l-1.4-1.4 9.2-9.2 1.4 1.4-9.2 9.2zm9.9-9.9L18 4.5l2.1-2.1 1.4 1.4-2.1 2.1z" fill="#ffffff" class="fill-000000"></path></svg>