<svg viewBox="0 0 22.108 22.105" xmlns="http://www.w3.org/2000/svg"><g data-name="Layer 2"><g data-name="Layer 1"><path d="M19.389 1.661c.491-.4.866.513.237.572a.338.338 0 0 1-.237-.572Zm-1.215.239a.335.335 0 0 0-.669 0 .335.335 0 0 0 .669 0Zm-2.357-.237c-.313.3.173.786.473.474s-.164-.779-.473-.476Zm5.229 5.806c.491.369-.1.966-.474.474L10.309 18.22a.324.324 0 0 1-.146.086l-3.911 1.107A.334.334 0 0 1 5.838 19l1.1-3.914a.337.337 0 0 1 .085-.146L17.291 4.659a.346.346 0 1 1 .473-.474l.7-.7a1.225 1.225 0 0 1 1.726 0l1.557 1.555a1.21 1.21 0 0 1 .358.863c.057.631-.682 1.156-1.059 1.564ZM7.737 15.175l.93.93L18.7 6.063l-.931-.93Zm1.7 2.642-2-2-.785 2.79ZM20.1 7.468l-.931-.932L9.14 16.578l.932.932Zm1.175-1.956-1.558-1.555c-.558-.54-1.106.391-1.48.7l2.335 2.335.7-.7a.554.554 0 0 0 .002-.78Zm.83-5.177v3.126a.335.335 0 0 1-.669 0V.67H.67v2.456h15.741a.335.335 0 0 1 0 .67H.67v17.639h16.3V17.3a.334.334 0 0 1 .335-.335h4.131V8.82a.335.335 0 0 1 .67 0v8.48a.334.334 0 0 1-.1.237l-4.466 4.466a.334.334 0 0 1-.236.1H.335A.335.335 0 0 1 0 21.77V.335A.335.335 0 0 1 .335 0H21.77a.335.335 0 0 1 .335.335Zm-4.466 20.626 3.323-3.322h-3.323ZM9.816 10.717a.335.335 0 0 0 0-.67H3.349V6.475h10.7a.335.335 0 1 0 0-.67H3.015a.335.335 0 0 0-.335.336v12.95a.335.335 0 0 0 .335.335h1.806a.335.335 0 1 0 0-.67H3.349v-8.039Z" data-name="web design" fill="#ffffff" class="fill-1a171b"></path></g></g></svg>